<?xml version="1.0" standalone="no"?>
<!DOCTYPE svg PUBLIC "-//W3C//DTD SVG 1.1//EN" "http://www.w3.org/Graphics/SVG/1.1/DTD/svg11.dtd" >
<svg xmlns="http://www.w3.org/2000/svg">
<metadata>Generated by IcoMoon</metadata>
<defs>
<font id="icomoon" horiz-adv-x="1024">
<font-face units-per-em="1024" ascent="960" descent="-64" />
<missing-glyph horiz-adv-x="1024" />
<glyph unicode="&#x20;" horiz-adv-x="512" d="" />

<glyph unicode="&#xe900;" glyph-name="medal" d="M545.976 587.614l137.525 340.386 178.019-71.924-139.74-345.869c-48.049 42.131-108.822 70.105-175.804 77.407v0 0zM299.815 510.022l-139.815 346.053 178.019 71.924 137.537-340.416c-66.972-7.359-127.725-35.385-175.742-77.561v0 0zM510.903-18.486c159.058 0 288 128.942 288 288s-128.942 288-288 288c-159.058 0-288-128.942-288-288s128.942-288 288-288v0 0zM510.903 183.36l-112-73.846 48 128-96 64h112l48 128 48-128h112l-96-64 48-128-112 73.846z" />

<glyph unicode="&#xe901;" glyph-name="amblemonedas" d="M511.776 800.154c-194.613 0-352.378-157.765-352.378-352.378s157.765-352.378 352.378-352.378c194.613 0 352.378 157.765 352.378 352.378v0c-0.255 194.511-157.868 352.123-352.354 352.378h-0.024zM511.776 489.864c68.657-6.552 121.928-63.931 121.928-133.751 0-59.847-39.139-110.553-93.217-127.918l-0.951-0.264v-51.939c-1.806-13.743-13.445-24.242-27.537-24.242s-25.73 10.499-27.521 24.101l-0.015 0.141v51.939c-59.887 13.845-103.981 66.362-104.772 129.312l-0.001 0.087c0 15.084 12.228 27.313 27.313 27.313v0c14.984-0.247 27.065-12.329 27.312-27.289v-0.023c-0.001-0.133-0.001-0.29-0.001-0.446 0-43.027 34.881-77.908 77.908-77.908s77.908 34.881 77.908 77.908c0 43.027-34.881 77.908-77.908 77.908-0.157 0-0.314 0-0.471-0.001h0.024c-69.016 6.17-122.707 63.726-122.707 133.821 0 60.298 39.731 111.317 94.442 128.305l0.952 0.255v34.924c1.806 13.743 13.445 24.242 27.537 24.242s25.73-10.499 27.521-24.101l0.015-0.141v-34.924c60.032-13.881 104.196-66.625 104.773-129.783v-0.064c0-15.084-12.228-27.313-27.313-27.313s-27.313 12.228-27.313 27.313v0c0.001 0.133 0.001 0.29 0.001 0.448 0 43.027-34.881 77.908-77.908 77.908s-77.908-34.881-77.908-77.908c0-43.027 34.88-77.907 77.907-77.908v0zM511.776 960c-282.893 0-512.224-229.33-512.224-512.224s229.33-512.224 512.224-512.224c282.893 0 512.224 229.33 512.224 512.224v0c-0.255 282.791-229.433 511.969-512.2 512.224h-0.024zM511.776 19.729c-237.393 0-429.838 192.445-429.838 429.838s192.445 429.838 429.838 429.838c237.393 0 429.838-192.445 429.838-429.838 0-0.157 0-0.315 0-0.472v0.025c0.001-0.266 0.001-0.581 0.001-0.895 0-237.393-192.445-429.838-429.838-429.838 0 0-0.001 0-0.001 0v0z" />

<glyph unicode="&#xe902;" glyph-name="anuario" d="M519.314 584.777c46.657 0 84.48 37.823 84.48 84.48s-37.823 84.48-84.48 84.48c-46.657 0-84.48-37.823-84.48-84.48v0c0-46.657 37.823-84.48 84.48-84.48v0zM543.451 441.051h-49.006c-70.692 0-128-57.308-128-128v0-13.166h303.909v13.166c0.001 0.218 0.002 0.476 0.002 0.734 0 70.032-56.565 126.853-126.5 127.266h-0.039zM819.566 960h-627.2c-0.001 0-0.002 0-0.003 0-45.592 0-82.6-36.752-83.014-82.246v-761.090h794.331v760.32c-0.414 45.938-37.749 83.018-83.745 83.018-0.13 0-0.259 0-0.389-0.001h0.020zM519.314 809.691c0.109 0 0.237 0 0.366 0 77.56 0 140.434-62.875 140.434-140.434s-62.875-140.434-140.434-140.434c-77.56 0-140.434 62.874-140.434 140.434v0c0 0 0 0 0 0 0 77.431 62.666 140.226 140.049 140.434h0.020zM747.52 261.12c0-11.109-9.005-20.114-20.114-20.114h-416.183c-0.124-0.003-0.269-0.004-0.415-0.004-11.403 0-20.741 8.846-21.524 20.050l-0.004 0.068v36.571c0.208 110.123 89.528 199.314 199.68 199.314 0 0 0 0 0 0h59.246c109.561-0.416 198.217-89.328 198.217-198.947 0 0 0-0.001 0-0.001v0zM109.349 4.389c3.764-39.442 36.726-70.044 76.836-70.044 1.918 0 3.819 0.070 5.701 0.207l-0.252-0.015h627.931c1.88-0.161 4.068-0.252 6.278-0.252 40.349 0 73.567 30.535 77.806 69.757l0.030 0.346v48.64h-794.331z" />

<glyph unicode="&#xe903;" glyph-name="convencion" d="M192 693.407v192c-0.004 0.332-0.006 0.724-0.006 1.117 0 10.93 1.615 21.482 4.619 31.432l-0.199-0.769h-119.614c-41.096-0.249-74.344-33.497-74.593-74.569v-192.024c0.249-41.096 33.497-74.344 74.569-74.593h15.914l54.731-72.386c5.615-7.496 14.334-12.403 24.214-12.798l0.062-0.002c0.172-0.004 0.375-0.006 0.579-0.006 9.354 0 17.709 4.279 23.214 10.987l0.042 0.053 64 72.828c-40.062 25.020-66.385 68.773-66.648 118.692v0.039zM949.407 917.186h-122.262c2.805-9.181 4.42-19.733 4.42-30.663 0-0.393-0.002-0.785-0.006-1.176v0.060-192c-0.263-49.959-26.586-93.712-66.058-118.387l-0.59-0.344 64-72.828c5.546-6.767 13.905-11.052 23.265-11.052 0.355 0 0.71 0.006 1.062 0.018l-0.051-0.001c10.076 0.391 18.934 5.289 24.661 12.724l0.057 0.076 53.848 72.386h16.331c41.197 0 74.593 33.396 74.593 74.593v192c0 41.197-33.396 74.593-74.593 74.593v0zM512 533.186v0c-9.893 0.59-18.547 5.44-24.22 12.726l-0.056 0.074-54.29 72.828h-101.517c-41.197 0-74.593 33.396-74.593 74.593v0 192c0 41.197 33.396 74.593 74.593 74.593v0h362.814c41.197 0 74.593-33.396 74.593-74.593v0-192c0-41.197-33.396-74.593-74.593-74.593v0h-93.572l-64.883-75.476c-5.938-6.778-14.61-11.034-24.276-11.034v0zM256 320c0-47.047-38.139-85.186-85.186-85.186s-85.186 38.139-85.186 85.186c0 47.047 38.139 85.186 85.186 85.186v0c0.131 0.001 0.287 0.001 0.443 0.001 46.803 0 84.745-37.942 84.745-84.745 0-0.156 0-0.311-0.001-0.466v0.024zM284.69 174.786c-43.331-32.538-71.065-83.817-71.065-141.573 0-0.349 0.001-0.697 0.003-1.046v0.053-11.034h-180.966c-17.795 0-32.221 14.426-32.221 32.221v21.186c0.992 63.928 52.928 115.4 116.942 115.641h106.837c0.117 0 0.255 0.001 0.393 0.001 22.26 0 43.023-6.412 60.542-17.49l-0.466 0.275zM938.814 320c0.001-0.131 0.001-0.285 0.001-0.44 0-47.291-38.337-85.628-85.628-85.628s-85.628 38.337-85.628 85.628c0 47.291 38.337 85.628 85.628 85.628 0.155 0 0.31 0 0.464-0.001h-0.024c47.047 0 85.186-38.139 85.186-85.186v0zM1024 74.593v-21.186c0-0.001 0-0.002 0-0.003 0-17.64-14.175-31.969-31.756-32.217h-181.43v11.034c0 0.101 0 0.221 0 0.34 0 58.142-28.105 109.719-71.47 141.888l-0.475 0.337c16.44 9.753 36.241 15.517 57.387 15.517 1.394 0 2.782-0.025 4.165-0.075l-0.2 0.006h106.372c64.842 0 117.407-52.565 117.407-117.407v0zM640 341.186c0-70.692-57.308-128-128-128s-128 57.308-128 128c0 70.692 57.308 128 128 128v0c70.692 0 128-57.308 128-128v0zM629.407 149.186h-234.814c-64.598 0-116.966-52.367-116.966-116.966v0-62.676c0-0.001 0-0.002 0-0.003 0-17.64 14.175-31.969 31.756-32.217h405.209c17.795 0 32.221 14.426 32.221 32.221v0 62.676c-0.251 64.652-52.719 116.966-117.406 116.966 0 0-0.001 0-0.001 0v0z" />

<glyph unicode="&#xe904;" glyph-name="diagnostico" d="M469.211 328.411c0.033 0 0.071 0 0.11 0 31.724 0 60.481 12.702 81.462 33.298l-0.018-0.018s0 0 0 0c19.707 20.844 31.823 49.046 31.823 80.077 0 64.431-52.232 116.663-116.663 116.663s-116.663-52.232-116.663-116.663c0-64.431 52.232-116.663 116.663-116.663 0.641 0 1.281 0.005 1.919 0.015l-0.096-0.001zM626.103 777.874v176.64h-415.817c-54.196-0.203-98.125-43.875-98.742-97.953l-0.001-0.059v-827.977c0.413-54.294 44.42-98.172 98.723-98.377h593.94c54.166 0.411 97.966 44.211 98.377 98.338v636.016h-162.743c-62.613 0-113.371 50.758-113.371 113.371v0zM468.846 631.589c0 0 0 0 0 0 103.688 0 187.769-83.952 187.977-187.591v-0.020c0.001-0.164 0.001-0.357 0.001-0.551 0-44.131-15.448-84.655-41.232-116.457l0.271 0.345 83.383-81.189c3.479-3.867 5.607-9.010 5.607-14.65 0-11.776-9.276-21.385-20.919-21.919l-0.048-0.002c-5.968 0.025-11.379 2.39-15.367 6.224l0.007-0.007-82.651 82.286c-31.691-25.298-72.334-40.594-116.55-40.594-103.615 0-187.611 83.996-187.611 187.611 0 103.575 83.932 187.547 187.493 187.611h0.006zM751.543 85.577c0-16.823-9.874-30.354-21.577-30.354h-445.806c-12.069 0-21.577 13.531-21.577 30.354s9.509 30.72 21.577 30.72h446.171c12.069 0 21.577-13.897 21.577-30.72zM769.463 746.789h133.12l-203.337 213.211v-143.36c0 0 0-0.001 0-0.001 0-38.578 31.274-69.851 69.851-69.851 0.129 0 0.257 0 0.386 0.001h-0.020z" />

<glyph unicode="&#xe905;" glyph-name="icn-docentes" d="M270 960c-49.628 0-90-40.372-90-90s40.372-90 90-90 90 40.372 90 90-40.372 90-90 90zM934 960h-424c-49.628 0-90-40.372-90-90v-106.604c8.884-5.174 17.376-11.086 24.844-18.552l58.828-58.828 42.656 21.328c28.598 14.25 53.466 14.858 79.45 9.166l143.968 71.986c44.378 21.984 98.21 4.692 120.704-40.166 22.416-44.772 4.226-98.638-40.196-120.85l-137.97-68.984c-10.594-28.722-31.12-52.122-58.67-65.87l-25.254-12.626h305.64c49.628 0 90 40.372 90 90v300c0 49.628-40.372 90-90 90zM80.010 361.428l39.99 14.12c0-132.452 0-246.542 0-379.548 0-33.134 26.862-60 60-60s60 26.866 60 60c0 79.006 0 137.14 0 212 0 16.572 13.432 30 30 30s30-13.428 30-30c0-77.286 0-132.712 0-212 0-33.134 26.862-60 60-60s60 26.866 60 60c0 184.736 0 318.642 0 501.842l39.99-14.092c16.722-5.918 32.504-4.566 46.846 2.578l120 60c20.75 10.352 32.094 31.154 32.46 52.774l164.122 82.060c14.824 7.412 20.83 25.43 13.418 40.254-7.442 14.824-25.4 20.772-40.254 13.418l-167.304-83.65c-16.658 9.55-37.148 11.934-56.114 2.486l-81.328-40.664-89.414 89.414c-11.338 11.34-26.396 17.58-42.422 17.58h-240c-66.182 0-120-53.818-120-120v-182c0-41.356 41.206-70.394 80.010-56.572z" />

<glyph unicode="&#xe906;" glyph-name="planificacion" d="M660.315 812.015c0.001 0.118 0.002 0.257 0.002 0.396 0 17.562-10.462 32.681-25.494 39.463l-0.273 0.11-30.72 12.883c-26.019 11.13-43.921 36.505-43.933 66.063v0.001c0 16.236-13.162 29.399-29.399 29.399v0h-36.335c-16.236 0-29.399-13.162-29.399-29.399v0c-0.012-29.56-17.914-54.935-43.466-65.887l-0.467-0.178-30.39-12.883c-15.36-6.764-25.924-21.782-26.095-39.286v-33.054h297.29zM804.996 790.214h-81.59v-43.272c0-13.135-10.648-23.783-23.783-23.783v0h-374.586c-13.135 0-23.783 10.648-23.783 23.783v0 43.272h-81.59c-38.918-0.182-70.463-31.495-71.019-70.306l-0.001-0.053v-708.212c0.187-39.148 31.872-70.833 71.001-71.019h585.35c39.223 0 71.019 31.796 71.019 71.019v0 708.212c0 39.223-31.796 71.019-71.019 71.019v0zM262.606 531.572h206.452c13.525-1.649 23.899-13.062 23.899-26.898 0-0.88-0.042-1.751-0.124-2.61l0.008 0.109c0.072-0.739 0.114-1.597 0.114-2.465 0-13.77-10.402-25.11-23.777-26.592l-0.12-0.011h-206.452c-13.495 1.493-23.897 12.833-23.897 26.603 0 0.868 0.041 1.726 0.122 2.573l-0.008-0.108c-0.074 0.749-0.116 1.62-0.116 2.5 0 13.836 10.374 25.249 23.768 26.885l0.131 0.013zM762.385 118.338h-499.778c-13.358 2.955-23.201 14.697-23.201 28.738s9.843 25.783 23.006 28.702l0.195 0.036h499.778c13.358-2.955 23.201-14.697 23.201-28.738s-9.843-25.783-23.006-28.702l-0.195-0.036zM762.385 291.757h-499.778c-13.86 3.014-24.088 15.177-24.088 29.729s10.228 26.715 23.887 29.692l0.201 0.037h499.778c13.325-3.554 22.98-15.514 22.98-29.729s-9.655-26.175-22.766-29.68l-0.215-0.049z" />

<glyph unicode="&#xe907;" glyph-name="taller-inicial" d="M704.591 642.166c0-30.017-24.334-54.351-54.351-54.351s-54.351 24.334-54.351 54.351c0 30.017 24.334 54.351 54.351 54.351s54.351-24.334 54.351-54.351zM350.523 451.545c0-20.011-16.222-36.234-36.234-36.234s-36.234 16.222-36.234 36.234c0 20.011 16.222 36.234 36.234 36.234s36.234-16.222 36.234-36.234zM295.778 651.618c4.586 4.586 7.423 10.922 7.423 17.92 0 13.996-11.346 25.343-25.343 25.343-6.998 0-13.334-2.837-17.92-7.423v0c-4.619-4.571-7.48-10.911-7.48-17.92s2.86-13.349 7.478-17.918l0.002-0.002c4.614-4.525 10.941-7.318 17.92-7.318s13.306 2.793 17.924 7.322l-0.004-0.004zM951.532 721.723c-16.725 56.604-50.54 103.817-95.389 136.952l-0.709 0.501c-71.337 62.561-165.424 100.727-268.425 100.727-5.464 0-10.904-0.107-16.316-0.32l0.778 0.024c-63.489-4.732-121.657-13.394-178.363-25.946l8.222 1.528c-63.641-9.344-119.429-37.641-162.783-78.887l0.124 0.117c-28.314-28.949-51.006-63.53-66.224-101.89l-0.73-2.085c-5.473-14.771-10.766-33.103-14.84-51.888l-0.52-2.857v-6.695c-4.955-18.278-10.868-33.983-18.063-48.956l0.734 1.694c-3.545-7.877-7.089-15.754-10.24-23.631-1.623-3.71-2.624-8.022-2.756-12.553l-0.001-0.050c0-5.514 7.877-11.815 14.966-18.905 14.734-10.309 24.774-26.458 26.758-45.016l0.024-0.277c-0.383-9.043-2.967-17.406-7.225-24.669l0.136 0.251c-24.771-51.522-52.458-95.847-84.341-136.741l1.24 1.652c-13.785-16.935-16.935-23.631-16.935-26.388l10.634-8.665c4.418-3.096 9.458-5.988 14.756-8.417l0.604-0.248c15.36-7.877 36.628-18.905 39.385-39.385 0.667-3.506 1.049-7.54 1.049-11.662 0-10.066-2.275-19.6-6.338-28.117l0.17 0.395c-2.852-6.714-5.883-12.407-9.341-17.801l0.283 0.472-2.757-5.12 22.055-16.935c3.82-2.964 6.522-7.21 7.463-12.083l0.020-0.126c0.056-0.556 0.087-1.201 0.087-1.854 0-4.506-1.514-8.659-4.060-11.978l0.034 0.047c-2.555-3.193-4.793-6.82-6.564-10.705l-0.132-0.323 3.545-2.363c16.029-6.89 28.179-20.199 33.363-36.603l0.114-0.418c1.589-5.91 2.501-12.694 2.501-19.692s-0.913-13.783-2.625-20.242l0.124 0.55c-0.73-2.937-1.42-6.681-1.912-10.487l-0.057-0.54c-0.238-2.157-0.374-4.657-0.374-7.19 0-9.032 1.728-17.661 4.87-25.574l-0.164 0.469c3.236-14.458 15.959-25.101 31.168-25.101 2.922 0 5.752 0.393 8.44 1.128l-0.224-0.052c63.698 15.116 116.317 31.203 167.572 50.107l-10.034-3.239 46.474 16.148 30.326 10.634c75.225 23.631 90.585 50.806 90.191 69.317-0.011 0.236-0.017 0.513-0.017 0.792 0 9.873 7.898 17.902 17.721 18.113h0.020c0.001 0 0.003 0 0.004 0 10.085 0 18.286-8.065 18.506-18.096v-0.021c0-45.292-39.385-78.769-115.791-104.763l-28.751-10.24-13.391-4.726c28.898-32.013 50.898-70.837 63.295-113.736l0.508-2.055h413.538c-5.471 7.366-10.821 15.736-15.584 24.472l-0.563 1.128c-7.912 15.704-15.653 34.604-22.005 54.13l-0.838 2.978c-10.162 32.766-18.074 71.399-22.223 111.151l-0.226 2.671c-2.124 14.291-3.337 30.785-3.337 47.563 0 46.172 9.185 90.198 25.828 130.351l-0.83-2.259c15.672 32.418 33.521 60.346 54.203 85.887l-0.64-0.816c10.24 14.178 21.268 28.751 30.72 43.717 24.225 36.809 38.844 81.825 39.383 130.222l0.001 0.141c0.005 0.843 0.008 1.84 0.008 2.837 0 50.026-7.050 98.406-20.211 144.2l0.904-3.678zM187.471 669.342c0.026 5.025 1.968 9.591 5.132 13.010l-0.012-0.013c3.317 3.363 7.907 5.461 12.987 5.514h13.795c1.392 4.047 2.856 7.429 4.539 10.679l-0.207-0.439-9.846 9.846c-3.254 3.447-5.255 8.108-5.255 13.237 0 1.592 0.193 3.139 0.556 4.619l-0.027-0.132c1.812 6.218 6.705 10.98 12.871 12.575l0.126 0.028c1.484 0.448 3.189 0.706 4.954 0.706 5.013 0 9.54-2.081 12.764-5.427l9.851-9.851c2.94 1.901 6.358 3.393 10.011 4.285l0.229 0.047v14.178c0.215 9.918 8.199 17.901 18.097 18.117h0.020c10.006 0 18.117-8.111 18.117-18.117v0-14.178c4.024-0.857 7.585-2.359 10.759-4.408l-0.125 0.076 9.846 9.846c3.229 3.351 7.756 5.433 12.769 5.433 1.765 0 3.47-0.258 5.079-0.739l-0.125 0.032c6.258-1.51 11.093-6.345 12.579-12.487l0.024-0.116c0.388-1.416 0.612-3.041 0.612-4.719 0-5.070-2.038-9.663-5.34-13.006l-9.844-9.844c1.901-2.94 3.393-6.358 4.285-10.011l0.047-0.229h14.178c8.999-1.36 15.818-9.041 15.818-18.314s-6.819-16.954-15.715-18.301l-0.102-0.013h-15.754c-0.94-3.882-2.431-7.3-4.412-10.372l0.080 0.132 9.846-9.846c3.595-3.321 5.838-8.059 5.838-13.321 0-10.006-8.111-18.117-18.117-18.117-5.262 0-10 2.243-13.31 5.826l-0.011 0.012-9.846 9.846c-3.059-1.915-6.586-3.524-10.324-4.646l-0.309-0.080v-15.754c0-10.006-8.111-18.117-18.117-18.117v0c-9.918 0.215-17.901 8.199-18.117 18.097v15.774c-3.914 1.295-7.3 2.895-10.447 4.846l0.207-0.119-9.846-9.846c-3.34-3.295-7.931-5.33-12.997-5.33s-9.657 2.035-12.999 5.332l0.002-0.002c-3.272 3.277-5.296 7.802-5.296 12.8s2.024 9.523 5.296 12.8v0l9.846 9.846c-1.476 2.811-2.94 6.193-4.164 9.688l-0.168 0.552h-13.785c-5.090 0.052-9.68 2.151-12.995 5.512l-0.002 0.002c-2.252 3.074-3.604 6.931-3.604 11.103 0 0.528 0.022 1.051 0.064 1.568l-0.004-0.068zM405.268 433.034h-20.874c-1.931-7.050-4.485-13.2-7.699-18.93l0.216 0.419 14.572-14.572c3.3-3.341 5.338-7.935 5.338-13.005 0-1.678-0.223-3.303-0.641-4.848l0.030 0.13c-1.812-6.218-6.705-10.98-12.871-12.575l-0.126-0.028c-1.358-0.365-2.917-0.574-4.525-0.574-5 0-9.527 2.025-12.805 5.3v0l-14.572 14.572c-5.33-3.196-11.5-5.767-18.045-7.386l-0.465-0.097v-20.874c-1.36-8.999-9.041-15.818-18.314-15.818s-16.954 6.819-18.301 15.715l-0.013 0.102v20.874c-7.011 1.717-13.181 4.287-18.821 7.654l0.31-0.171-14.572-14.572c-3.222-3.299-7.714-5.346-12.685-5.346-1.652 0-3.252 0.226-4.769 0.649l0.125-0.030c-6.292 1.623-11.184 6.385-12.965 12.475l-0.032 0.128c-0.388 1.416-0.612 3.041-0.612 4.719 0 5.070 2.038 9.663 5.34 13.006l14.57 14.57c-2.998 5.311-5.553 11.46-7.345 17.927l-0.138 0.584h-20.874c-9.918 0.215-17.901 8.199-18.117 18.097v0.020c0 10.006 8.111 18.117 18.117 18.117v0h20.874c1.755 7.015 4.322 13.181 7.661 18.837l-0.178-0.327-14.572 14.966c-3.299 3.222-5.346 7.714-5.346 12.685 0 1.652 0.226 3.252 0.649 4.769l-0.030-0.125c1.692 6.381 6.616 11.305 12.87 12.968l0.126 0.029c1.393 0.393 2.992 0.619 4.644 0.619 4.97 0 9.463-2.046 12.681-5.342l14.575-14.575c5.311 2.998 11.46 5.553 17.927 7.345l0.584 0.138v20.874c1.36 8.999 9.041 15.818 18.314 15.818s16.954-6.819 18.301-15.715l0.013-0.102v-20.874c7.050-1.931 13.2-4.485 18.93-7.699l-0.419 0.216 14.572 14.572c3.277 3.267 7.798 5.288 12.792 5.288 8.386 0 15.441-5.697 17.505-13.432l0.029-0.127c0.393-1.393 0.619-2.992 0.619-4.644 0-4.97-2.046-9.463-5.342-12.681l-0.003-0.003-14.572-14.966c3.161-5.329 5.728-11.495 7.379-18.026l0.104-0.484h20.874c10.006 0 18.117-8.111 18.117-18.117v0c-0.426-9.749-8.332-17.517-18.097-17.723h-0.020zM909.391 594.905c-1.38-8.531-8.692-14.967-17.508-14.967-0.076 0-0.151 0-0.227 0.001h-39.374c-4.672-15.081-10.421-28.124-17.443-40.342l0.507 0.958 26.782-26.782c2.668-3.033 4.297-7.037 4.297-11.422s-1.628-8.389-4.313-11.441l0.017 0.019c-17.658-25.385-38.948-46.801-63.39-64.050l-0.807-0.54c-2.863-1.906-6.382-3.041-10.165-3.041-5.103 0-9.723 2.065-13.072 5.404v0l-26.388 26.388c-11.191-6.321-24.22-12.059-37.836-16.498l-1.549-0.437v-39.385c0.001-0.082 0.002-0.179 0.002-0.276 0-8.893-6.407-16.289-14.858-17.825l-0.111-0.017c-13.676-2.443-29.42-3.84-45.489-3.84s-31.813 1.397-47.115 4.076l1.626-0.236c-8.561 1.552-14.968 8.948-14.968 17.841 0 0.097 0.001 0.194 0.002 0.29v-0.015 38.597c-15.165 4.877-28.194 10.614-40.49 17.504l1.105-0.569-26.782-26.388c-3.348-3.339-7.969-5.404-13.071-5.404-3.784 0-7.302 1.135-10.234 3.084l0.068-0.043c-25.069 18.004-46.322 39.382-63.634 63.756l-0.563 0.835c-2.594 3.062-4.171 7.058-4.171 11.422s1.577 8.359 4.192 11.447l-0.021-0.026 26.782 26.782c-6.321 11.191-12.059 24.22-16.498 37.836l-0.437 1.549h-39.385c-8.843 0.059-16.178 6.446-17.706 14.855l-0.017 0.111c-2.443 13.676-3.84 29.42-3.84 45.489s1.397 31.813 4.076 47.115l-0.236-1.626c1.545 8.521 8.88 14.907 17.717 14.966h39.391c4.877 15.165 10.614 28.194 17.504 40.49l-0.569-1.105-26.782 26.388c-2.554 3.147-4.1 7.202-4.1 11.618s1.546 8.471 4.127 11.653l-0.027-0.034c17.765 25.161 39.036 46.432 63.379 63.648l0.818 0.549c2.898 2.148 6.544 3.439 10.491 3.439 5.001 0 9.518-2.071 12.741-5.403l0.005-0.005 26.782-26.388c11.191 6.321 24.22 12.059 37.836 16.498l1.549 0.437v41.748c-0.001 0.082-0.002 0.179-0.002 0.276 0 8.893 6.407 16.289 14.858 17.825l0.111 0.017c13.676 2.443 29.42 3.84 45.489 3.84s31.813-1.397 47.115-4.076l-1.626 0.236c8.561-1.552 14.968-8.948 14.968-17.841 0-0.097-0.001-0.194-0.002-0.29v0.015-37.415c15.165-4.877 28.194-10.614 40.49-17.504l-1.105 0.569 26.388 26.388c3.276 3.266 7.797 5.285 12.789 5.285 3.915 0 7.54-1.242 10.503-3.353l-0.055 0.038c26.827-17.737 49.333-39.615 67.216-64.986l0.526-0.786c2.623-3.121 4.216-7.184 4.216-11.618s-1.593-8.497-4.239-11.646l0.023 0.028-26.782-26.388c6.514-11.261 12.263-24.303 16.558-37.99l0.377-1.395h39.385c0.064 0.001 0.14 0.001 0.216 0.001 8.815 0 16.128-6.436 17.494-14.866l0.014-0.102c1.741-11.129 2.735-23.965 2.735-37.033 0-19.824-2.289-39.114-6.616-57.619l0.336 1.704zM816.837 663.434c-7.554 0.037-13.848 5.386-15.342 12.5l-0.018 0.103c-4.163 18.65-11.246 35.12-20.833 49.807l0.353-0.576c-1.547 2.433-2.466 5.397-2.466 8.576 0 4.311 1.689 8.227 4.442 11.123l22.442 22.442c-8.884 11.22-18.713 21.049-29.561 29.648l-0.372 0.284-22.449-22.055c-2.812-3.015-6.808-4.895-11.244-4.895-3.145 0-6.070 0.945-8.505 2.568l0.056-0.035c-14.156 8.693-30.662 15.262-48.277 18.747l-0.953 0.157c-7.217 1.512-12.566 7.806-12.603 15.356v31.906c-6.382 0.752-13.775 1.18-21.268 1.18s-14.886-0.429-22.155-1.263l0.888 0.083v-31.902c0-0.003 0-0.007 0-0.010 0-7.444-5.162-13.681-12.102-15.328l-0.107-0.021c-18.652-4.088-35.132-11.179-49.784-20.822l0.553 0.342c-2.432-1.546-5.395-2.463-8.572-2.463-4.507 0-8.583 1.846-11.512 4.824l-0.002 0.002-22.449 22.055c-11.12-8.996-20.936-18.812-29.643-29.563l-0.29-0.369 22.449-22.449c3.015-2.812 4.895-6.808 4.895-11.244 0-3.145-0.945-6.070-2.568-8.505l0.035 0.056c-9.406-14.076-16.511-30.574-20.312-48.297l-0.168-0.933c-1.677-7.267-8.092-12.603-15.754-12.603v0h-30.326c-0.752-6.323-1.18-13.647-1.18-21.071s0.429-14.748 1.263-21.948l-0.083 0.877h31.508c7.61-0.148 13.949-5.413 15.73-12.489l0.024-0.114c3.885-18.662 11-35.172 20.795-49.728l-0.315 0.497c1.546-2.432 2.463-5.395 2.463-8.572 0-4.507-1.846-8.583-4.824-11.512l-22.451-22.451c9.091-11.035 18.897-20.841 29.565-29.638l0.367-0.294 22.449 22.449c2.931 2.98 7.007 4.826 11.514 4.826 3.177 0 6.14-0.918 8.638-2.502l-0.066 0.039c14.098-9.301 30.579-16.392 48.256-20.299l0.975-0.181c7.070-1.822 12.21-8.141 12.21-15.66 0-0.033 0-0.066 0-0.099v0.005-31.508c6.382-0.753 13.775-1.183 21.268-1.183s14.886 0.43 22.155 1.266l-0.887-0.083v34.265c0 7.662 5.336 14.077 12.494 15.733l0.109 0.021c18.65 4.163 35.12 11.246 49.807 20.833l-0.576-0.353c2.379 1.587 5.303 2.532 8.449 2.532 4.435 0 8.431-1.88 11.235-4.886l0.008-0.009 22.449-22.449c11.12 8.996 20.936 18.812 29.643 29.563l0.29 0.369-22.449 22.449c-2.776 2.952-4.482 6.938-4.482 11.322 0 3.248 0.936 6.277 2.553 8.832l-0.040-0.068c9.301 14.098 16.392 30.579 20.299 48.256l0.181 0.975c1.645 7.14 7.861 12.414 15.34 12.603h29.165c0.752 6.323 1.18 13.647 1.18 21.071s-0.429 14.748-1.263 21.948l0.083-0.877zM650.24 538.585c-57.424 0-103.975 46.552-103.975 103.975s46.551 103.975 103.975 103.975c57.424 0 103.975-46.551 103.975-103.975 0-0.138 0-0.277-0.001-0.415v0.021c0 0 0 0 0-0.001 0-57.207-46.375-103.582-103.582-103.582-0.139 0-0.277 0-0.415 0.001h0.021z" />

<glyph unicode="&#xe908;" glyph-name="venezuela" d="M1026.867 613.888c-5.729 12.157-17.881 20.42-31.963 20.42-3.199 0-6.298-0.426-9.244-1.225l0.247 0.057c-13.517-2.048-40.96-12.698-33.178 15.155 21.299 64.717-31.13 62.259-63.488 77.824-23.347 10.65-53.658 6.554-71.27 35.226-0.973 0.691-1.695 1.678-2.038 2.83l-0.010 0.038s0 0 0 0v0c-0.027 0.268-0.043 0.579-0.043 0.894 0 4.785 3.567 8.736 8.187 9.341l0.048 0.005c10.24 0 20.070 2.867 30.31 5.325h4.915l6.554 2.867c-35.226 16.794-76.595-3.277-112.23 4.506h-2.867c8.192 0-60.621 0-37.274-15.155 8.192-4.915 0-17.203-6.554-16.384v0c-10.772-2.585-23.895-4.754-37.274-6.048l-1.229-0.096-11.059-2.867c-8.96-5.236-19.727-8.328-31.215-8.328-15.278 0-29.28 5.467-40.154 14.552l0.099-0.081-17.613 15.565c-17.965 4.98-38.595 7.841-59.892 7.841-1.84 0-3.676-0.021-5.506-0.064l0.272 0.005c-28.262 0-51.61-18.022-78.234-20.48s-35.226 27.034-40.96 51.61v0c-34.816 53.248-96.666 59.802-158.515 36.045-17.613-6.963-40.96-23.757-59.392-29.491-1.459-1.646-2.694-3.537-3.629-5.593l-0.058-0.141-2.867-6.554c0.109-1.531 0.171-3.318 0.171-5.12s-0.062-3.589-0.185-5.359l0.013 0.239c0-32.768 38.093-67.584 34.406-101.581-3.265-19.633-20.123-34.417-40.434-34.417-2.064 0-4.093 0.153-6.075 0.447l0.224-0.027c-24.507 9.721-41.52 33.223-41.52 60.698 0 3.006 0.204 5.964 0.598 8.862l-0.038-0.337c6.507 29.251 18.603 54.962 35.189 77.116l-0.373-0.521v10.65l-2.458 6.554c-2.451 1.648-4.496 3.693-6.094 6.065l-0.050 0.079c-36.045 46.285-51.2 8.602-68.813-6.963-40.96-35.635-34.816-91.75-58.163-136.397-10.24-20.070 38.502-3.277 40.96-33.997 0-20.070 21.709-38.912 22.528-58.573 4.506-88.064 38.093-91.341 110.182-86.016 28.672 2.458 61.85 0 71.68-14.336 40.96-64.307 99.123-55.296 158.515-47.514 22.528 2.867 47.923-2.048 28.672-25.395-61.85-75.776 40.96-156.467-12.698-228.966l9.83-8.192c35.635-22.938 40.96-62.669 53.248-97.894 12.092-34.097 44.068-58.079 81.645-58.079 15.773 0 30.559 4.225 43.288 11.606l-0.414-0.222c45.053 27.715 83.83 55.671 120.448 86.133l-1.664-1.346c4.915 9.421 11.878 26.214 6.963 34.406-6.232 4.276-13.596 8.758-21.195 12.859l-1.333 0.658c-8.569 7.57-15.279 17.044-19.491 27.773l-0.169 0.49c-7.782 18.842-13.926 36.864-22.528 54.886-2.557 3.854-5.116 7.194-7.878 10.352l0.096-0.112c-10.529 11.399-20.363 23.835-29.205 36.993l-0.696 1.1c-0.282 0.794-0.445 1.709-0.445 2.662s0.163 1.869 0.462 2.72l-0.018-0.057c-0.495 1.108-0.784 2.402-0.784 3.762 0 5.203 4.218 9.421 9.421 9.421 0.421 0 0.835-0.028 1.241-0.081l-0.048 0.005c20.12-3.125 37.539-12.898 50.318-26.964l0.063-0.070c11.216-9.733 23.677-18.671 36.926-26.405l1.167-0.629c12.988-2.711 23.967-5.819 34.635-9.586l-1.867 0.574c4.47-0.297 9.69-0.467 14.95-0.467s10.48 0.169 15.656 0.503l-0.705-0.036c40.96 38.093 93.798 31.13 135.168 57.344s54.886 40.96 16.384 81.92-38.502 72.909 17.613 97.075c11.469 4.915 40.96 12.288 21.709 31.13-38.093 34.816 0 40.96 15.155 56.934s31.949 14.336 22.938 36.045z" />

<glyph unicode="&#xe909;" glyph-name="actividades" horiz-adv-x="757" d="M-0.698 34.455c0.198-55.26 44.941-100.003 100.182-100.2h557.231c55.26 0.198 100.003 44.941 100.2 100.182v691.647c-0.198 55.26-44.941 100.003-100.182 100.2h-50.643c-14.145 39.030-50.798 66.456-93.888 66.684h-39.131c-14.195 39.206-51.105 66.715-94.44 66.715s-80.245-27.51-94.219-66.018l-0.221-0.697h-40.499c-43.258-0.073-80.080-27.546-94.044-65.987l-0.221-0.697h-49.227c-0.104 0-0.227 0.001-0.35 0.001-55.409 0-100.351-44.819-100.549-100.182v-0.019zM589.332 112.66h-155.014c-18.504 0-34.913 10.823-34.913 24.090s15.013 24.439 34.913 24.439h155.712c18.504 0 34.913-11.172 34.913-24.439s-16.409-22.693-34.913-22.693zM589.332 246.028h-88.33c-1.45-0.245-3.121-0.386-4.824-0.386-15.31 0-27.975 11.328-30.070 26.059l-0.019 0.162c2.266 14.731 14.851 25.88 30.040 25.88 1.721 0 3.408-0.143 5.051-0.418l-0.178 0.025h89.028c1.465 0.25 3.152 0.393 4.873 0.393 15.189 0 27.775-11.149 30.018-25.71l0.022-0.17c-2.699-14.239-15.044-24.861-29.87-24.861-1.781 0-3.527 0.153-5.224 0.448l0.181-0.026zM589.332 379.745h-155.014c-18.504 0-34.913 10.823-34.913 24.090s15.013 24.439 34.913 24.439h155.712c18.504 0 34.913-10.823 34.913-24.439s-16.409-22.693-34.913-22.693zM589.332 564.784c1.45 0.245 3.121 0.386 4.824 0.386 15.31 0 27.975-11.328 30.070-26.059l0.019-0.162c-2.114-14.893-14.779-26.221-30.089-26.221-1.703 0-3.374 0.14-5.001 0.41l0.177-0.024h-88.33c-1.45-0.245-3.121-0.386-4.824-0.386-15.31 0-27.975 11.328-30.070 26.059l-0.019 0.162c2.114 14.893 14.779 26.221 30.089 26.221 1.703 0 3.374-0.14 5.001-0.41l-0.177 0.024zM211.573 792.766c0 19.282 15.631 34.913 34.913 34.913v0h67.033c19.282 0 34.913 15.631 34.913 34.913v0c4.556 14.345 17.757 24.558 33.342 24.558s28.786-10.212 33.274-24.31l0.068-0.247c0-0.013 0-0.028 0-0.044 0-18.668 14.651-33.914 33.082-34.866l0.085-0.003h67.033c18.516-0.956 33.167-16.201 33.167-34.869 0-0.015 0-0.031 0-0.046v0.002-34.913h-336.911zM143.493 504.734c5.973 6.157 14.323 9.978 23.566 9.978s17.594-3.821 23.558-9.97l0.008-0.008 43.292-42.943 109.976 109.976c6.188 5.675 14.471 9.154 23.566 9.154s17.379-3.478 23.592-9.177l-0.026 0.023c5.772-6.21 9.314-14.562 9.314-23.741s-3.542-17.531-9.334-23.763l0.020 0.022-133.717-133.368c-5.973-6.157-14.323-9.978-23.566-9.978s-17.594 3.821-23.558 9.97l-66.692 66.692c-6.157 5.973-9.978 14.323-9.978 23.566s3.821 17.594 9.97 23.558l0.008 0.008zM143.493 237.649c6.188 5.675 14.471 9.154 23.566 9.154s17.379-3.478 23.592-9.177l-0.026 0.023 43.292-43.292 109.976 109.976c5.973 6.157 14.323 9.978 23.566 9.978s17.594-3.821 23.558-9.97l0.008-0.008c5.675-6.188 9.154-14.471 9.154-23.566s-3.478-17.379-9.177-23.592l0.023 0.026-133.717-133.368c-5.973-6.157-14.323-9.978-23.566-9.978s-17.594 3.821-23.558 9.97l-66.692 66.692c-6.157 5.973-9.978 14.323-9.978 23.566s3.821 17.594 9.97 23.558l0.008 0.008z" />

<glyph unicode="&#xf014;" glyph-name="trash-empty" horiz-adv-x="805" d="M292.571 530.286v-329.143c0-10.286-8-18.286-18.286-18.286h-36.571c-10.286 0-18.286 8-18.286 18.286v329.143c0 10.286 8 18.286 18.286 18.286h36.571c10.286 0 18.286-8 18.286-18.286zM438.857 530.286v-329.143c0-10.286-8-18.286-18.286-18.286h-36.571c-10.286 0-18.286 8-18.286 18.286v329.143c0 10.286 8 18.286 18.286 18.286h36.571c10.286 0 18.286-8 18.286-18.286zM585.143 530.286v-329.143c0-10.286-8-18.286-18.286-18.286h-36.571c-10.286 0-18.286 8-18.286 18.286v329.143c0 10.286 8 18.286 18.286 18.286h36.571c10.286 0 18.286-8 18.286-18.286zM658.286 116.571v541.714h-512v-541.714c0-27.429 15.429-43.429 18.286-43.429h475.429c2.857 0 18.286 16 18.286 43.429zM274.286 731.428h256l-27.429 66.857c-1.714 2.286-6.857 5.714-9.714 6.286h-181.143c-3.429-0.571-8-4-9.714-6.286zM804.571 713.143v-36.571c0-10.286-8-18.286-18.286-18.286h-54.857v-541.714c0-62.857-41.143-116.571-91.429-116.571h-475.429c-50.286 0-91.429 51.429-91.429 114.286v544h-54.857c-10.286 0-18.286 8-18.286 18.286v36.571c0 10.286 8 18.286 18.286 18.286h176.571l40 95.429c11.429 28 45.714 50.857 76 50.857h182.857c30.286 0 64.571-22.857 76-50.857l40-95.429h176.571c10.286 0 18.286-8 18.286-18.286z" />

<glyph unicode="&#xf02d;" glyph-name="book" horiz-adv-x="953" d="M936.571 677.714c14.286-20.571 18.286-47.429 10.286-73.714l-157.143-517.714c-14.286-48.571-64.571-86.286-113.714-86.286h-527.429c-58.286 0-120.571 46.286-141.714 105.714-9.143 25.714-9.143 50.857-1.143 72.571 1.143 11.429 3.429 22.857 4 36.571 0.571 9.143-4.571 16.571-3.429 23.429 2.286 13.714 14.286 23.429 23.429 38.857 17.143 28.571 36.571 74.857 42.857 104.571 2.857 10.857-2.857 23.429 0 33.143 2.857 10.857 13.714 18.857 19.429 29.143 15.429 26.286 35.429 77.143 38.286 104 1.143 12-4.571 25.143-1.143 34.286 4 13.143 16.571 18.857 25.143 30.286 13.714 18.857 36.571 73.143 40 103.429 1.143 9.714-4.571 19.429-2.857 29.714 2.286 10.857 16 22.286 25.143 35.429 24 35.429 28.571 113.714 101.143 93.143l-0.571-1.714c9.714 2.286 19.429 5.143 29.143 5.143h434.857c26.857 0 50.857-12 65.143-32 14.857-20.571 18.286-47.429 10.286-74.286l-156.571-517.714c-26.857-88-41.714-107.429-114.286-107.429h-496.571c-7.429 0-16.571-1.714-21.714-8.571-4.571-6.857-5.143-12-0.571-24.571 11.429-33.143 50.857-40 82.286-40h527.429c21.143 0 45.714 12 52 32.571l171.429 564c3.429 10.857 3.429 22.286 2.857 32.571 13.143-5.143 25.143-13.143 33.714-24.571zM328.571 676.571c-3.429-10.286 2.286-18.286 12.571-18.286h347.429c9.714 0 20.571 8 24 18.286l12 36.571c3.429 10.286-2.286 18.286-12.571 18.286h-347.429c-9.714 0-20.571-8-24-18.286zM281.143 530.286c-3.429-10.286 2.286-18.286 12.571-18.286h347.429c9.714 0 20.571 8 24 18.286l12 36.571c3.429 10.286-2.286 18.286-12.571 18.286h-347.429c-9.714 0-20.571-8-24-18.286z" />

<glyph unicode="&#xf030;" glyph-name="camera" horiz-adv-x="1097" d="M548.571 566.857c90.857 0 164.571-73.714 164.571-164.571s-73.714-164.571-164.571-164.571-164.571 73.714-164.571 164.571 73.714 164.571 164.571 164.571zM950.857 804.571c80.571 0 146.286-65.714 146.286-146.286v-512c0-80.571-65.714-146.286-146.286-146.286h-804.571c-80.571 0-146.286 65.714-146.286 146.286v512c0 80.571 65.714 146.286 146.286 146.286h128l29.143 77.714c14.286 37.714 58.857 68.571 98.857 68.571h292.571c40 0 84.571-30.857 98.857-68.571l29.143-77.714h128zM548.571 146.286c141.143 0 256 114.857 256 256s-114.857 256-256 256-256-114.857-256-256 114.857-256 256-256z" />

<glyph unicode="&#xf03e;" glyph-name="image, photo, picture-o" horiz-adv-x="1097" d="M365.714 621.714c0-60.571-49.143-109.714-109.714-109.714s-109.714 49.143-109.714 109.714 49.143 109.714 109.714 109.714 109.714-49.143 109.714-109.714zM950.857 402.286v-256h-804.571v109.714l182.857 182.857 91.429-91.429 292.571 292.571zM1005.714 804.571h-914.286c-9.714 0-18.286-8.571-18.286-18.286v-694.857c0-9.714 8.571-18.286 18.286-18.286h914.286c9.714 0 18.286 8.571 18.286 18.286v694.857c0 9.714-8.571 18.286-18.286 18.286zM1097.143 786.286v-694.857c0-50.286-41.143-91.429-91.429-91.429h-914.286c-50.286 0-91.429 41.143-91.429 91.429v694.857c0 50.286 41.143 91.429 91.429 91.429h914.286c50.286 0 91.429-41.143 91.429-91.429z" />

<glyph unicode="&#xf040;" glyph-name="pencil" horiz-adv-x="866" d="M207.429 73.143l52 52-134.286 134.286-52-52v-61.143h73.143v-73.143h61.143zM506.286 603.428c0 7.429-5.143 12.571-12.571 12.571-3.429 0-6.857-1.143-9.714-4l-309.714-309.714c-2.857-2.857-4-6.286-4-9.714 0-7.429 5.143-12.571 12.571-12.571 3.429 0 6.857 1.143 9.714 4l309.714 309.714c2.857 2.857 4 6.286 4 9.714zM475.429 713.143l237.714-237.714-475.429-475.429h-237.714v237.714zM865.714 658.286c0-19.429-8-38.286-21.143-51.429l-94.857-94.857-237.714 237.714 94.857 94.286c13.143 13.714 32 21.714 51.429 21.714s38.286-8 52-21.714l134.286-133.714c13.143-13.714 21.143-32.571 21.143-52z" />

<glyph unicode="&#xf06c;" glyph-name="leaf" d="M731.429 548.571c0 20-16.571 36.571-36.571 36.571-202.286 0-332.571-84.571-464.571-230.286-6.857-7.429-10.857-15.429-10.857-25.714 0-20 16.571-36.571 36.571-36.571 10.286 0 18.286 4 25.714 10.857 28 25.143 53.143 52.571 80.571 78.286 103.429 93.143 192 130.286 332.571 130.286 20 0 36.571 16.571 36.571 36.571zM1024 661.714c0-36.571-4-73.714-11.429-110.286-36.571-177.714-150.857-293.143-309.714-372-77.143-38.857-163.429-61.714-250.286-61.714-54.857 0-111.429 9.143-163.429 26.857-27.429 9.143-82.286 45.143-105.143 45.143-28.571 0-62.857-116.571-112.571-116.571-36 0-46.857 17.714-62.286 44-5.143 9.714-9.143 13.143-9.143 25.143 0 59.429 113.143 105.714 113.143 138.857 0 5.143-14.857 35.429-17.143 46.857-3.429 19.429-5.143 39.429-5.143 59.429 0 181.714 144.571 311.429 306.857 365.143 117.143 38.857 366.286-6.286 445.714 69.143 31.429 29.143 46.857 56 94.857 56 64.571 0 85.714-167.429 85.714-216z" />

<glyph unicode="&#xf06e;" glyph-name="eye" d="M950.857 402.286c-54.286 84-128.571 156-217.714 201.714 22.857-38.857 34.857-83.429 34.857-128.571 0-141.143-114.857-256-256-256s-256 114.857-256 256c0 45.143 12 89.714 34.857 128.571-89.143-45.714-163.429-117.714-217.714-201.714 97.714-150.857 255.429-256 438.857-256s341.143 105.143 438.857 256zM539.429 621.714c0 14.857-12.571 27.429-27.429 27.429-95.429 0-173.714-78.286-173.714-173.714 0-14.857 12.571-27.429 27.429-27.429s27.429 12.571 27.429 27.429c0 65.143 53.714 118.857 118.857 118.857 14.857 0 27.429 12.571 27.429 27.429zM1024 402.286c0-14.286-4.571-27.429-11.429-39.429-105.143-173.143-297.714-289.714-500.571-289.714s-395.429 117.143-500.571 289.714c-6.857 12-11.429 25.143-11.429 39.429s4.571 27.429 11.429 39.429c105.143 172.571 297.714 289.714 500.571 289.714s395.429-117.143 500.571-289.714c6.857-12 11.429-25.143 11.429-39.429z" />

<glyph unicode="&#xf073;" glyph-name="calendar" horiz-adv-x="951" d="M73.143 0h164.571v164.571h-164.571v-164.571zM274.286 0h182.857v164.571h-182.857v-164.571zM73.143 201.143h164.571v182.857h-164.571v-182.857zM274.286 201.143h182.857v182.857h-182.857v-182.857zM73.143 420.571h164.571v164.571h-164.571v-164.571zM493.714 0h182.857v164.571h-182.857v-164.571zM274.286 420.571h182.857v164.571h-182.857v-164.571zM713.143 0h164.571v164.571h-164.571v-164.571zM493.714 201.143h182.857v182.857h-182.857v-182.857zM292.571 694.857v164.571c0 9.714-8.571 18.286-18.286 18.286h-36.571c-9.714 0-18.286-8.571-18.286-18.286v-164.571c0-9.714 8.571-18.286 18.286-18.286h36.571c9.714 0 18.286 8.571 18.286 18.286zM713.143 201.143h164.571v182.857h-164.571v-182.857zM493.714 420.571h182.857v164.571h-182.857v-164.571zM713.143 420.571h164.571v164.571h-164.571v-164.571zM731.429 694.857v164.571c0 9.714-8.571 18.286-18.286 18.286h-36.571c-9.714 0-18.286-8.571-18.286-18.286v-164.571c0-9.714 8.571-18.286 18.286-18.286h36.571c9.714 0 18.286 8.571 18.286 18.286zM950.857 731.428v-731.429c0-40-33.143-73.143-73.143-73.143h-804.571c-40 0-73.143 33.143-73.143 73.143v731.429c0 40 33.143 73.143 73.143 73.143h73.143v54.857c0 50.286 41.143 91.429 91.429 91.429h36.571c50.286 0 91.429-41.143 91.429-91.429v-54.857h219.429v54.857c0 50.286 41.143 91.429 91.429 91.429h36.571c50.286 0 91.429-41.143 91.429-91.429v-54.857h73.143c40 0 73.143-33.143 73.143-73.143z" />

<glyph unicode="&#xf07c;" glyph-name="folder-open" horiz-adv-x="1074" d="M1073.714 406.857c0-13.714-8.571-27.429-17.714-37.714l-192-226.286c-33.143-38.857-100.571-69.714-150.857-69.714h-621.714c-20.571 0-49.714 6.286-49.714 32 0 13.714 8.571 27.429 17.714 37.714l192 226.286c33.143 38.857 100.571 69.714 150.857 69.714h621.714c20.571 0 49.714-6.286 49.714-32zM877.714 603.428v-91.429h-475.429c-71.429 0-160-40.571-206.286-95.429l-195.429-229.714c0 4.571-0.571 9.714-0.571 14.286v548.571c0 70.286 57.714 128 128 128h182.857c70.286 0 128-57.714 128-128v-18.286h310.857c70.286 0 128-57.714 128-128z" />

<glyph unicode="&#xf080;" glyph-name="bar-chart, bar-chart-o" horiz-adv-x="1170" d="M365.714 438.857v-292.571h-146.286v292.571h146.286zM585.143 731.428v-585.143h-146.286v585.143h146.286zM1170.286 73.143v-73.143h-1170.286v877.714h73.143v-804.571h1097.143zM804.571 585.143v-438.857h-146.286v438.857h146.286zM1024 804.571v-658.286h-146.286v658.286h146.286z" />

<glyph unicode="&#xf0c0;" glyph-name="group, users" horiz-adv-x="1097" d="M338.857 438.857c-59.429-1.714-113.143-27.429-151.429-73.143h-76.571c-57.143 0-110.857 27.429-110.857 90.857 0 46.286-1.714 201.714 70.857 201.714 12 0 71.429-48.571 148.571-48.571 26.286 0 51.429 4.571 76 13.143-1.714-12.571-2.857-25.143-2.857-37.714 0-52 16.571-103.429 46.286-146.286zM950.857 74.857c0-92.571-61.143-148-152.571-148h-499.429c-91.429 0-152.571 55.429-152.571 148 0 129.143 30.286 327.429 197.714 327.429 19.429 0 90.286-79.429 204.571-79.429s185.143 79.429 204.571 79.429c167.429 0 197.714-198.286 197.714-327.429zM365.714 804.571c0-80.571-65.714-146.286-146.286-146.286s-146.286 65.714-146.286 146.286 65.714 146.286 146.286 146.286 146.286-65.714 146.286-146.286zM768 585.143c0-121.143-98.286-219.429-219.429-219.429s-219.429 98.286-219.429 219.429 98.286 219.429 219.429 219.429 219.429-98.286 219.429-219.429zM1097.143 456.571c0-63.429-53.714-90.857-110.857-90.857h-76.571c-38.286 45.714-92 71.429-151.429 73.143 29.714 42.857 46.286 94.286 46.286 146.286 0 12.571-1.143 25.143-2.857 37.714 24.571-8.571 49.714-13.143 76-13.143 77.143 0 136.571 48.571 148.571 48.571 72.571 0 70.857-155.429 70.857-201.714zM1024 804.571c0-80.571-65.714-146.286-146.286-146.286s-146.286 65.714-146.286 146.286 65.714 146.286 146.286 146.286 146.286-65.714 146.286-146.286z" />

<glyph unicode="&#xf0c9;" glyph-name="bars" horiz-adv-x="878" d="M877.714 182.857v-73.143c0-20-16.571-36.571-36.571-36.571h-804.571c-20 0-36.571 16.571-36.571 36.571v73.143c0 20 16.571 36.571 36.571 36.571h804.571c20 0 36.571-16.571 36.571-36.571zM877.714 475.428v-73.143c0-20-16.571-36.571-36.571-36.571h-804.571c-20 0-36.571 16.571-36.571 36.571v73.143c0 20 16.571 36.571 36.571 36.571h804.571c20 0 36.571-16.571 36.571-36.571zM877.714 768v-73.143c0-20-16.571-36.571-36.571-36.571h-804.571c-20 0-36.571 16.571-36.571 36.571v73.143c0 20 16.571 36.571 36.571 36.571h804.571c20 0 36.571-16.571 36.571-36.571z" />

<glyph unicode="&#xf0cb;" glyph-name="list-numbered" horiz-adv-x="1033" d="M217.714 25.143c0-62.857-49.143-98.286-108.571-98.286-36 0-72.571 12-98.286 37.714l32.571 50.286c15.429-14.286 38.857-25.714 60.571-25.714 20 0 41.143 9.714 41.143 32.571 0 32-36.571 33.714-60 32l-14.857 32c20.571 26.286 39.429 55.429 64 77.714v0.571c-18.286 0-37.143-1.143-55.429-1.143v-30.286h-60.571v86.857h190.286v-50.286l-54.286-65.714c38.286-9.143 63.429-38.857 63.429-78.286zM218.857 383.428v-90.857h-206.857c-1.714 10.286-3.429 20.571-3.429 30.857 0 105.714 129.143 121.714 129.143 169.714 0 19.429-12 29.714-30.857 29.714-20 0-36.571-17.143-46.286-33.143l-48.571 33.714c18.857 39.429 57.714 61.714 101.143 61.714 53.143 0 98.857-31.429 98.857-88 0-84.571-124-103.429-125.714-148h72.571v34.286h60zM1024 201.143v-109.714c0-9.714-8.571-18.286-18.286-18.286h-694.857c-10.286 0-18.286 8.571-18.286 18.286v109.714c0 10.286 8 18.286 18.286 18.286h694.857c9.714 0 18.286-8 18.286-18.286zM219.429 714.857v-56.571h-191.429v56.571h61.143c0 46.286 0.571 92.571 0.571 138.857v6.857h-1.143c-6.286-12.571-17.714-21.143-28.571-30.857l-40.571 43.429 77.714 72.571h60.571v-230.857h61.714zM1024 493.714v-109.714c0-9.714-8.571-18.286-18.286-18.286h-694.857c-10.286 0-18.286 8.571-18.286 18.286v109.714c0 10.286 8 18.286 18.286 18.286h694.857c9.714 0 18.286-8 18.286-18.286zM1024 786.286v-109.714c0-9.714-8.571-18.286-18.286-18.286h-694.857c-10.286 0-18.286 8.571-18.286 18.286v109.714c0 9.714 8 18.286 18.286 18.286h694.857c9.714 0 18.286-8.571 18.286-18.286z" />

<glyph unicode="&#xf1f8;" glyph-name="trash" horiz-adv-x="805" d="M292.571 164.571v402.286c0 10.286-8 18.286-18.286 18.286h-36.571c-10.286 0-18.286-8-18.286-18.286v-402.286c0-10.286 8-18.286 18.286-18.286h36.571c10.286 0 18.286 8 18.286 18.286zM438.857 164.571v402.286c0 10.286-8 18.286-18.286 18.286h-36.571c-10.286 0-18.286-8-18.286-18.286v-402.286c0-10.286 8-18.286 18.286-18.286h36.571c10.286 0 18.286 8 18.286 18.286zM585.143 164.571v402.286c0 10.286-8 18.286-18.286 18.286h-36.571c-10.286 0-18.286-8-18.286-18.286v-402.286c0-10.286 8-18.286 18.286-18.286h36.571c10.286 0 18.286 8 18.286 18.286zM274.286 731.428h256l-27.429 66.857c-1.714 2.286-6.857 5.714-9.714 6.286h-181.143c-3.429-0.571-8-4-9.714-6.286zM804.571 713.143v-36.571c0-10.286-8-18.286-18.286-18.286h-54.857v-541.714c0-62.857-41.143-116.571-91.429-116.571h-475.429c-50.286 0-91.429 51.429-91.429 114.286v544h-54.857c-10.286 0-18.286 8-18.286 18.286v36.571c0 10.286 8 18.286 18.286 18.286h176.571l40 95.429c11.429 28 45.714 50.857 76 50.857h182.857c30.286 0 64.571-22.857 76-50.857l40-95.429h176.571c10.286 0 18.286-8 18.286-18.286z" />

<glyph unicode="&#xe922;" glyph-name="file-text" horiz-adv-x="805" d="M27 0h-24c-1.65 0-3 1.35-3 3v26c0 1.65 1.35 3 3 3h24c1.65 0 3-1.35 3-3v-26c0-1.65-1.35-3-3-3zM26 28h-22v-24h22v24zM8 14h14v2h-14zM8 18h14v2h-14zM8 22h14v2h-14zM8 10h14v2h-14z"


</font>
</defs>
</svg>
