<?xml version="1.0" encoding="utf-8"?>
<!-- Generator: Adobe Illustrator 22.1.0, SVG Export Plug-In . SVG Version: 6.00 Build 0)  -->
<svg version="1.1" id="Capa_1" xmlns="http://www.w3.org/2000/svg" xmlns:xlink="http://www.w3.org/1999/xlink" x="0px" y="0px"
	 viewBox="0 0 143.6 153.8" style="enable-background:new 0 0 143.6 153.8;" xml:space="preserve">
<style type="text/css">
	.st0{fill:#008096;}
</style>
<g>
	<path class="st0" d="M18.3,52.8c1.3,0.4,2.6-0.4,3-1.6C28.4,26.7,51.1,9.7,76.6,9.7c4.1,0,8.1,0.4,12.1,1.3
		c-0.1,3.5,1.4,5.8,2.4,7.3c0.3,0.4,0.6,1,0.7,1.1c0,8.6-1.8,10-1.7,10c-3.9,0-10.3,3.5-12.7,8c-1.5,2.7-1.4,5.7,0.3,8.2
		c1.2,1.7,2.2,3.7,3.1,5.5c2,4,4.3,8.3,7.9,8.3c0.8,0,1.6-0.2,2.4-0.6c2.8-1.4,4.8-5.4,6.7-9.2c0.9-1.7,2.1-4.2,2.9-5
		c2.4,0.3,3.6,2.5,5.2,6c1.2,2.6,2.4,5.2,4.8,6.4c4.1,2,17.4-0.1,24.8-3.2c1.1-0.5,1.7-1.7,1.4-2.8c-5-18.6-18.7-34.1-36.6-41.5
		C99,9,97.6,9.6,97.1,10.8c-0.5,1.2,0.1,2.6,1.3,3.1c15.9,6.5,28.1,19.9,33.2,36.2c-7.5,2.6-17.1,3.4-18.8,2.6
		c-0.9-0.5-1.8-2.4-2.6-4.1c-1.7-3.6-4-8.6-9.8-8.9c-3-0.2-4.7,3.3-6.9,7.6c-1.3,2.6-3.2,6.4-4.8,7.2c-0.9-0.2-2.7-3.6-3.7-5.7
		c-1-1.9-2.1-4-3.4-6c-0.7-1.1-0.7-2.1-0.1-3.3c1.6-3.1,6.6-5.4,8.4-5.4c4.3,0,6.5-5,6.5-14.8c0-1.4-0.7-2.5-1.4-3.6
		c-1-1.6-2.1-3.3-1.4-6.1c0.3-1.3-0.5-2.5-1.8-2.8c-5-1.3-10.1-1.9-15.3-1.9c-27.6,0-52.3,18.5-60,45C16.3,51.1,17,52.4,18.3,52.8
		L18.3,52.8z M18.3,52.8"/>
	<path class="st0" d="M105.4,68.6c-0.7,0.2-1.6,0.5-1.9,0.5c-3.3,0-5.4,2.6-7,4.4c-0.6,0.7-1.6,2-2.3,2c-1.1-0.5-2.2-0.8-3.4-0.8
		c-2.8,0-5.3,1.7-5.8,4c-0.4,1.6,0.2,3.9,2.9,5.2c3.9,1.9,7.9,4,9.7,5.8c1.2,1.2,3.4,1.9,5.9,1.9c3.8,0,8.8-1.8,10.5-7
		c0.7-2,2.3-3.6,3.9-5.1c1.8-1.8,3.6-3.4,3.6-5.8c0-1.4-0.6-2.7-1.8-4c-1.7-1.7-4-2.5-6.8-2.5C110.1,67.2,107.4,68,105.4,68.6
		L105.4,68.6z M116.7,73.7c-0.1,0.5-1.3,1.6-2.1,2.4c-1.8,1.7-4.1,3.9-5.1,7.1c-1.2,3.6-5.2,3.7-6,3.7c-1.4,0-2.3-0.4-2.5-0.5
		c-2.3-2.3-6.5-4.4-11-6.7c0,0,0,0,0,0c0.5-0.2,1.3-0.2,2,0.2c0.8,0.4,1.6,0.6,2.4,0.6c2.7,0,4.3-2.1,5.8-3.9
		c1.1-1.3,2.2-2.7,3.2-2.7c0.9,0,1.8-0.3,3.2-0.7c1.8-0.5,4.1-1.2,6.1-1.2c1.5,0,2.7,0.4,3.4,1.1C116.6,73.5,116.7,73.7,116.7,73.7
		L116.7,73.7z M116.7,73.7"/>
	<path class="st0" d="M138.4,58.7c-0.2-1.3-1.4-2.2-2.7-2.1c-1.3,0.2-2.2,1.4-2.1,2.7c0.4,2.6,0.5,5.3,0.5,8
		c0,31.5-25.5,57.3-56.9,57.6c-8.5-5.5-16.5-12.1-13-20.5c6.4-14.9,0.4-20.5-2.1-22.9l-0.5-0.5c-0.7-0.7-1.5-1.2-2.3-1.7
		c-1.8-1.1-2.2-1.3-1.3-4.2c0.6-1.9,1.5-2.8,2.4-3.8c2.2-2.3,3.9-4.7,3.9-11.5c0-4-2-7.1-5.5-8.6c-4-1.8-9.3-1.1-12.1,1.4
		c-1.7,1.6-2.3,3.8-1.6,5.9c1.7,5.1-2.2,12.5-9.5,18c-1.9,1.5-2.5,0.8-2.9,0.4c-2.1-2.5-2-9.5-0.2-11.3c1.2-1.2,1.5-2.7,0.9-4
		c-1.9-4.4-14.4-4.1-16.8-4c-1.2,0.1-2.1,0.9-2.3,2.1c-0.3,2.5-0.4,4.7-0.4,7.3c0,28.8,19.5,53.7,47.4,60.6c1.3,0.3,2.6-0.5,2.9-1.8
		c0.3-1.3-0.5-2.6-1.8-2.9C37,116.9,19,93.9,19,67.3c0-1.7,0.1-3.1,0.2-4.6c4.1,0,7.5,0.5,9.3,1C25.7,68,26,76.4,29.3,80.3
		c2.4,2.8,5.9,2.9,9.4,0.3c9.2-6.9,13.6-16.1,11.2-23.4c-0.1-0.2-0.2-0.5,0.3-0.9c1.3-1.1,4.5-1.6,6.9-0.6c1.8,0.8,2.6,2.2,2.6,4.3
		c0,5.4-1.1,6.6-2.6,8.2c-1.1,1.2-2.5,2.7-3.5,5.6c-2.2,6.5,1.3,8.6,3.4,9.8c0.5,0.3,1,0.6,1.3,0.9c0.2,0.2,0.4,0.4,0.6,0.6
		c2.1,2,6,5.7,1,17.5c-5.8,13.4,9.1,22.8,15.4,26.8c0.4,0.2,0.8,0.4,1.3,0.4c34.4,0,62.4-28,62.4-62.4
		C139,64.4,138.8,61.5,138.4,58.7L138.4,58.7z M138.4,58.7"/>
	<path class="st0" d="M116.7,121.3c-11.7,8.7-25.5,13.3-40.1,13.3c-37.1,0-67.2-30.2-67.2-67.2c0-1.3-1.1-2.4-2.4-2.4
		c-1.3,0-2.4,1.1-2.4,2.4c0,38.9,31,70.7,69.6,72v7.3c0,1.3,1.1,2.4,2.4,2.4c1.3,0,2.4-1.1,2.4-2.4v-7.3
		c14.7-0.5,28.7-5.3,40.6-14.1c1.1-0.8,1.3-2.3,0.5-3.4C119.3,120.7,117.8,120.5,116.7,121.3L116.7,121.3z M116.7,121.3"/>
	<path class="st0" d="M78.4,102.2c-3,0-6.5,3.4-7.8,6.5c-1,2.4-0.7,4.7,0.8,6.2c1.4,1.4,3.6,2.3,5.8,2.3c2.3,0,4.4-0.8,5.8-2.3
		c1.6-1.6,2-3.9,1.1-6.6c-0.6-1.8-1.8-3.7-3.2-5.1C80.4,102.6,79.4,102.2,78.4,102.2L78.4,102.2z M79.7,111.5c-1.1,1.1-3.8,1-4.9,0
		c0-0.1,0-0.7,0.6-1.8c0.8-1.4,2-2.3,2.6-2.7c0.7,0.8,1.3,1.8,1.6,2.7C79.9,110.6,80,111.3,79.7,111.5L79.7,111.5z M79.7,111.5"/>
</g>
</svg>
