<?xml version="1.0" encoding="utf-8"?>
<!-- Generator: Adobe Illustrator 22.1.0, SVG Export Plug-In . SVG Version: 6.00 Build 0)  -->
<svg version="1.1" id="Capa_1" xmlns="http://www.w3.org/2000/svg" xmlns:xlink="http://www.w3.org/1999/xlink" x="0px" y="0px"
	 viewBox="0 0 148.2 143.2" style="enable-background:new 0 0 148.2 143.2;" xml:space="preserve">
<style type="text/css">
	.st0{fill:#008096;}
</style>
<g>
	<path class="st0" d="M85.3,6.6H53.9c-6.2,0-11.2,4.9-11.2,10.8v78c0,1.2,1,2.2,2.2,2.2h13.5c1.2,0,2.2-1,2.2-2.2
		c0-1.2-1-2.2-2.2-2.2H47.2V89h2.2c1.2,0,2.2-1,2.2-2.2c0-1.2-1-2.2-2.2-2.2h-2.2v-4.3h2.2c1.2,0,2.2-1,2.2-2.2c0-1.2-1-2.2-2.2-2.2
		h-2.2v-4.3h2.2c1.2,0,2.2-1,2.2-2.2c0-1.2-1-2.2-2.2-2.2h-2.2v-4.3h11.2c1.2,0,2.2-1,2.2-2.2c0-1.2-1-2.2-2.2-2.2H47.2v-4.3h2.2
		c1.2,0,2.2-1,2.2-2.2c0-1.2-1-2.2-2.2-2.2h-2.2v-4.3h2.2c1.2,0,2.2-1,2.2-2.2c0-1.2-1-2.2-2.2-2.2h-2.2v-4.3h2.2
		c1.2,0,2.2-1,2.2-2.2c0-1.2-1-2.2-2.2-2.2h-2.2v-4.3h11.2c1.2,0,2.2-1,2.2-2.2c0-1.2-1-2.2-2.2-2.2H47.2v-6.5c0-3.6,3-6.5,6.7-6.5
		h31.4c3.7,0,6.7,2.9,6.7,6.5v108.4c0,3.6-3,6.5-6.7,6.5H53.9c-3.7,0-6.7-2.9-6.7-6.5v-21.7c0-1.2-1-2.2-2.2-2.2
		c-1.2,0-2.2,1-2.2,2.2v21.7c0,6,5,10.8,11.2,10.8h31.4c6.2,0,11.2-4.9,11.2-10.8V17.4C96.5,11.5,91.5,6.6,85.3,6.6L85.3,6.6z
		 M85.3,6.6"/>
	<path class="st0" d="M15.8,34.8v78c0,1.2,1,2.2,2.2,2.2c1.2,0,2.2-1,2.2-2.2v-78c0-1.2-1-2.2-2.2-2.2
		C16.8,32.6,15.8,33.6,15.8,34.8L15.8,34.8z M15.8,34.8"/>
	<path class="st0" d="M20,7.8c-0.8-1.5-3.2-1.5-4,0l-9,17.3c-0.2,0.3-0.2,0.6-0.2,1v99.7c0,6,5,10.8,11.2,10.8
		c6.2,0,11.2-4.9,11.2-10.8v-4.3c0-1.2-1-2.2-2.2-2.2h-9c-1.2,0-2.2,1-2.2,2.2c0,1.2,1,2.2,2.2,2.2h6.7v2.2c0,3.6-3,6.5-6.7,6.5
		c-3.7,0-6.7-2.9-6.7-6.5V26.6l6.7-13l5.3,10.3H18c-1.2,0-2.2,1-2.2,2.2c0,1.2,1,2.2,2.2,2.2h6.7v84.5c0,1.2,1,2.2,2.2,2.2
		c1.2,0,2.2-1,2.2-2.2V26.1c0-0.4-0.1-0.7-0.3-1L20,7.8z M20,7.8"/>
	<path class="st0" d="M78.6,115c0-4.8-4-8.7-9-8.7c-4.9,0-9,3.9-9,8.7c0,4.8,4,8.7,9,8.7C74.5,123.6,78.6,119.8,78.6,115L78.6,115z
		 M65.1,115c0-2.4,2-4.3,4.5-4.3c2.5,0,4.5,1.9,4.5,4.3c0,2.4-2,4.3-4.5,4.3C67.1,119.3,65.1,117.4,65.1,115L65.1,115z M65.1,115"/>
	<path class="st0" d="M121.2,110.6c-1.2,0-2.2,1-2.2,2.2c0,1.2,1,2.2,2.2,2.2h17.9c1.2,0,2.2-1,2.2-2.2v-13c0-6-5-10.8-11.2-10.8h-9
		C115,89,110,93.8,110,99.8v26c0,6,5,10.8,11.2,10.8h9c6.2,0,11.2-4.9,11.2-10.8v-4.3c0-1.2-1-2.2-2.2-2.2c-1.2,0-2.2,1-2.2,2.2v4.3
		c0,3.6-3,6.5-6.7,6.5h-9c-3.7,0-6.7-2.9-6.7-6.5v-26c0-3.6,3-6.5,6.7-6.5h9c3.7,0,6.7,2.9,6.7,6.5v10.8H121.2z M121.2,110.6"/>
</g>
</svg>
