<?xml version="1.0" encoding="utf-8"?>
<!-- Generator: Adobe Illustrator 22.1.0, SVG Export Plug-In . SVG Version: 6.00 Build 0)  -->
<svg version="1.1" id="Capa_1" xmlns="http://www.w3.org/2000/svg" xmlns:xlink="http://www.w3.org/1999/xlink" x="0px" y="0px"
	 viewBox="0 0 152.8 152.8" style="enable-background:new 0 0 152.8 152.8;" xml:space="preserve">
<style type="text/css">
	.st0{fill:#008096;}
</style>
<g>
	<path class="st0" d="M86,72.8c0.4,0.8,1.2,1.3,2.1,1.3c0.4,0,0.7-0.1,1.1-0.3c0.1-0.1,13.9-7.1,20.7-9.2c1.2-0.4,1.9-1.7,1.5-2.9
		c-0.4-1.2-1.7-1.9-2.9-1.5c-7.2,2.3-20.8,9.2-21.4,9.5C85.9,70.2,85.4,71.6,86,72.8L86,72.8z M86,72.8"/>
	<path class="st0" d="M88.1,46c0.4,0,0.7-0.1,1.1-0.3c0.1-0.1,13.9-7.1,20.7-9.2c1.2-0.4,1.9-1.7,1.5-2.9c-0.4-1.2-1.7-1.9-2.9-1.5
		c-7.2,2.3-20.8,9.2-21.4,9.5c-1.2,0.6-1.6,2-1,3.1C86.4,45.5,87.3,46,88.1,46L88.1,46z M88.1,46"/>
	<path class="st0" d="M144.3,41.3c-1.3,0-2.3,1-2.3,2.3v91.3c0,3.9-3.1,7-7,7H78.8v-5.4c3.4-1.2,12.3-4,21.1-4
		c20.4,0,34.2,4.5,34.4,4.6c0.7,0.2,1.5,0.1,2.1-0.3c0.6-0.4,1-1.1,1-1.9V32c0-1.1-0.8-2-1.8-2.3c0,0-1.8-0.4-5-1
		c-1.3-0.2-2.5,0.6-2.7,1.9c-0.2,1.3,0.6,2.5,1.9,2.7c1.2,0.2,2.2,0.4,3,0.6v97.9c-5.3-1.4-17.1-3.9-32.8-3.9
		c-10.2,0-20.2,3.3-23.3,4.5c-2.8-1.2-11.1-4.5-21.2-4.5c-16.1,0-29.4,2.7-35.1,4V33.8c4.7-1.1,18.5-4.2,35.1-4.2
		c8.5,0,15.8,2.7,18.7,3.9v92.1c0,0.8,0.5,1.6,1.2,2c0.7,0.4,1.6,0.4,2.4,0c0.2-0.1,23.4-14,44-20.8c1-0.3,1.6-1.2,1.6-2.2V8.6
		c0-0.8-0.4-1.5-1-1.9c-0.6-0.4-1.4-0.5-2.2-0.3c-18.7,7-37.7,18.8-37.9,18.9c-1.1,0.7-1.4,2.1-0.7,3.2c0.7,1.1,2.1,1.4,3.2,0.7
		c0.2-0.1,16.7-10.4,33.9-17.3v90.8c-16,5.5-32.7,14.6-39.8,18.7V32c0-0.9-0.5-1.7-1.3-2.1c-0.4-0.2-10-4.9-22.1-4.9
		c-21.1,0-37.4,4.6-38.1,4.8c-1,0.3-1.7,1.2-1.7,2.2v103c0,0.7,0.3,1.4,0.9,1.9c0.4,0.3,0.9,0.5,1.4,0.5c0.2,0,0.4,0,0.6-0.1
		c0.2,0,16.3-4.6,36.8-4.6c8.6,0,15.9,2.7,18.7,3.9v5.5H17.9c-3.9,0-7-3.1-7-7V43.7c0-1.3-1-2.3-2.3-2.3c-1.3,0-2.3,1-2.3,2.3v91.3
		c0,6.5,5.2,11.7,11.7,11.7h117c6.5,0,11.7-5.2,11.7-11.7V43.7C146.6,42.4,145.6,41.3,144.3,41.3L144.3,41.3z M144.3,41.3"/>
	<path class="st0" d="M86,58.8c0.4,0.8,1.2,1.3,2.1,1.3c0.4,0,0.7-0.1,1.1-0.3c0.1-0.1,13.9-7.1,20.7-9.2c1.2-0.4,1.9-1.7,1.5-2.9
		c-0.4-1.2-1.7-1.9-2.9-1.5c-7.2,2.3-20.8,9.2-21.4,9.5C85.9,56.2,85.4,57.6,86,58.8L86,58.8z M86,58.8"/>
	<path class="st0" d="M86,86.8c0.4,0.8,1.2,1.3,2.1,1.3c0.4,0,0.7-0.1,1.1-0.3c0.1-0.1,13.9-7.1,20.7-9.2c1.2-0.4,1.9-1.7,1.5-2.9
		c-0.4-1.2-1.7-1.9-2.9-1.5c-7.2,2.3-20.8,9.2-21.4,9.5C85.9,84.3,85.4,85.7,86,86.8L86,86.8z M86,86.8"/>
	<path class="st0" d="M62.9,49.6c-14.4-3.4-30.9,0.9-31.6,1.1c-1.2,0.3-2,1.6-1.7,2.9c0.3,1,1.2,1.7,2.3,1.7c0.2,0,0.4,0,0.6-0.1
		c0.2,0,16-4.2,29.3-1.1c1.3,0.3,2.5-0.5,2.8-1.7C64.9,51.2,64.2,49.9,62.9,49.6L62.9,49.6z M62.9,49.6"/>
	<path class="st0" d="M62.9,63.7c-14.4-3.4-30.9,0.9-31.6,1.1c-1.2,0.3-2,1.6-1.7,2.9c0.3,1,1.2,1.7,2.3,1.7c0.2,0,0.4,0,0.6-0.1
		c0.2,0,16-4.2,29.3-1.1c1.3,0.3,2.5-0.5,2.8-1.7C64.9,65.2,64.2,64,62.9,63.7L62.9,63.7z M62.9,63.7"/>
	<path class="st0" d="M86,100.9c0.4,0.8,1.2,1.3,2.1,1.3c0.4,0,0.7-0.1,1.1-0.3c0.1-0.1,13.9-7.1,20.7-9.2c1.2-0.4,1.9-1.7,1.5-2.9
		c-0.4-1.2-1.7-1.9-2.9-1.5c-7.2,2.3-20.8,9.2-21.4,9.5C85.9,98.3,85.4,99.7,86,100.9L86,100.9z M86,100.9"/>
	<path class="st0" d="M62.9,77.7c-14.4-3.4-30.9,0.9-31.6,1.1c-1.2,0.3-2,1.6-1.7,2.9c0.3,1,1.2,1.7,2.3,1.7c0.2,0,0.4,0,0.6-0.1
		c0.2,0,16-4.2,29.3-1.1c1.3,0.3,2.5-0.5,2.8-1.7C64.9,79.3,64.2,78,62.9,77.7L62.9,77.7z M62.9,77.7"/>
	<path class="st0" d="M62.9,105.8c-14.4-3.4-30.9,0.9-31.6,1.1c-1.2,0.3-2,1.6-1.7,2.9c0.3,1,1.2,1.7,2.3,1.7c0.2,0,0.4,0,0.6-0.1
		c0.2,0,16-4.2,29.3-1.1c1.3,0.3,2.5-0.5,2.8-1.7C64.9,107.4,64.2,106.1,62.9,105.8L62.9,105.8z M62.9,105.8"/>
	<path class="st0" d="M62.9,91.8c-14.4-3.4-30.9,0.9-31.6,1.1c-1.2,0.3-2,1.6-1.7,2.9c0.3,1,1.2,1.7,2.3,1.7c0.2,0,0.4,0,0.6-0.1
		c0.2,0,16-4.2,29.3-1.1c1.3,0.3,2.5-0.5,2.8-1.7C64.9,93.3,64.2,92.1,62.9,91.8L62.9,91.8z M62.9,91.8"/>
</g>
</svg>
